<svg data-center-circle="" class="h-full w-auto m-auto min-w-[65rem] md:w-[90rem] laptop:w-[100vmax]" width="818" height="697" viewBox="0 0 818 697" fill="none" xmlns="http://www.w3.org/2000/svg" style="translate: none; rotate: none; scale: none; transform: translate3d(0px, 0px, 0px) rotate(16.5394deg);"><path opacity="0" d="M394.795 53.4211C398.97 53.5234 403.089 55.4475 407.128 59.1965C411.173 62.9519 415.082 68.4915 418.793 75.6851C426.217 90.0712 432.746 110.859 438.04 136.575C448.625 187.989 454.226 258.852 452.312 336.966C450.399 415.079 441.336 485.583 428.247 536.417C421.7 561.843 414.161 582.286 406.043 596.292C401.983 603.295 397.808 608.637 393.584 612.19C389.367 615.736 385.158 617.456 380.983 617.354C376.809 617.252 372.689 615.328 368.651 611.579C364.605 607.823 360.697 602.284 356.985 595.09C349.562 580.704 343.033 559.916 337.738 534.2C327.153 482.786 321.553 411.923 323.466 333.81C325.379 255.696 334.442 185.193 347.531 134.358C354.078 108.933 361.617 88.489 369.736 74.4836C373.795 67.4803 377.97 62.1387 382.195 58.5859C386.412 55.0391 390.621 53.3189 394.795 53.4211Z" stroke="white" stroke-opacity="0.4" stroke-width="2.24514" style="opacity: 0.8;"></path><path opacity="0" d="M421.23 53.8435C425.38 54.3092 429.316 56.5851 433.012 60.6717C436.715 64.7654 440.126 70.6246 443.196 78.1143C449.338 93.0926 454.03 114.371 457.063 140.45C463.126 192.591 462.53 263.672 453.816 341.322C445.102 418.972 429.928 488.417 412.459 537.917C403.721 562.675 394.429 582.384 385.12 595.629C380.466 602.251 375.841 607.209 371.323 610.38C366.813 613.546 362.47 614.893 358.32 614.427C354.171 613.961 350.234 611.685 346.538 607.599C342.836 603.505 339.425 597.646 336.354 590.156C330.213 575.178 325.52 553.9 322.487 527.82C316.424 475.679 317.021 404.598 325.735 326.948C334.448 249.299 349.622 179.853 367.092 130.354C375.83 105.595 385.122 85.8862 394.43 72.6417C399.085 66.0189 403.709 61.0615 408.227 57.8903C412.737 54.7246 417.08 53.3778 421.23 53.8435Z" stroke="white" stroke-opacity="0.4" stroke-width="2.24514" style="opacity: 0.8;"></path><path opacity="0" d="M447.412 56.3991C451.505 57.2246 455.228 59.8349 458.554 64.2282C461.885 68.629 464.773 74.7632 467.179 82.492C471.992 97.9486 474.812 119.555 475.56 145.799C477.056 198.27 470.267 269.029 454.818 345.624C439.37 422.218 418.202 490.077 396.484 537.866C385.621 561.769 374.647 580.593 364.22 592.975C359.006 599.167 353.966 603.703 349.189 606.468C344.421 609.229 339.977 610.192 335.884 609.366C331.79 608.541 328.067 605.93 324.741 601.537C321.41 597.136 318.522 591.002 316.116 583.273C311.304 567.817 308.484 546.211 307.735 519.966C306.239 467.495 313.029 396.737 328.477 320.142C343.925 243.547 365.094 175.688 386.811 127.899C397.674 103.997 408.648 85.1728 419.075 72.79C424.289 66.5981 429.329 62.0626 434.106 59.2972C438.874 56.5366 443.318 55.5735 447.412 56.3991Z" stroke="white" stroke-opacity="0.4" stroke-width="2.24514" style="opacity: 0.8;"></path><path opacity="0" d="M472.512 61.5924C476.517 62.7716 479.999 65.6965 482.929 70.3629C485.864 75.0373 488.206 81.3998 489.93 89.309C493.377 105.126 494.303 126.896 492.761 153.106C489.678 205.507 476.748 275.405 454.682 350.362C432.617 425.319 405.615 491.074 379.815 536.788C366.911 559.654 354.337 577.449 342.871 588.876C337.137 594.59 331.721 598.669 326.721 601.008C321.73 603.342 317.219 603.914 313.214 602.735C309.208 601.556 305.726 598.631 302.796 593.965C299.861 589.29 297.519 582.928 295.795 575.019C292.348 559.201 291.422 537.432 292.964 511.222C296.047 458.82 308.978 388.922 331.043 313.966C353.108 239.009 380.11 173.253 405.91 127.539C418.815 104.674 431.388 86.8782 442.855 75.4513C448.588 69.7374 454.004 65.6584 459.004 63.3199C463.995 60.9854 468.506 60.4132 472.512 61.5924Z" stroke="white" stroke-opacity="0.4" stroke-width="2.24514" style="opacity: 0.8;"></path><path opacity="0" d="M498.34 67.7792C502.228 69.3031 505.441 72.5202 507.953 77.4243C510.47 82.3367 512.248 88.8791 513.276 96.9084C515.331 112.966 514.357 134.733 510.536 160.709C502.898 212.643 483.925 281.147 455.411 353.896C426.896 426.644 394.266 489.796 364.58 533.088C349.732 554.741 335.656 571.374 323.236 581.758C317.026 586.95 311.276 590.541 306.091 592.435C300.916 594.326 296.372 594.503 292.484 592.979C288.597 591.455 285.383 588.238 282.871 583.334C280.354 578.421 278.576 571.879 277.548 563.85C275.493 547.792 276.468 526.025 280.288 500.049C287.926 448.116 306.9 379.611 335.414 306.862C363.928 234.114 396.558 170.962 426.244 127.67C441.093 106.017 455.169 89.3846 467.588 79.0006C473.798 73.8082 479.548 70.2167 484.733 68.3228C489.909 66.4322 494.452 66.2554 498.34 67.7792Z" stroke="white" stroke-opacity="0.4" stroke-width="2.24514" style="opacity: 0.8;"></path><path opacity="0" d="M522.72 76.5038C526.46 78.3607 529.381 81.8457 531.456 86.9501C533.535 92.0631 534.737 98.7356 535.061 106.824C535.708 122.999 532.84 144.599 526.771 170.143C514.635 221.213 489.763 287.804 455.017 357.79C420.271 427.777 382.261 487.844 348.915 528.384C332.236 548.661 316.763 564.003 303.486 573.265C296.848 577.896 290.806 580.973 285.476 582.408C280.155 583.84 275.614 583.62 271.874 581.763C268.133 579.907 265.213 576.422 263.137 571.317C261.058 566.204 259.857 559.532 259.533 551.443C258.885 535.268 261.753 513.668 267.823 488.124C279.958 437.054 304.83 370.464 339.576 300.477C374.322 230.491 412.332 170.423 445.679 129.883C462.358 109.606 477.83 94.2644 491.107 85.0023C497.746 80.3709 503.787 77.2942 509.117 75.8594C514.438 74.4271 518.98 74.6469 522.72 76.5038Z" stroke="white" stroke-opacity="0.4" stroke-width="2.24514" style="opacity: 0.8;"></path><path opacity="0" d="M546.146 87.1446C549.71 89.3204 552.316 93.0467 553.939 98.3125C555.564 103.587 556.18 110.339 555.797 118.425C555.033 134.595 550.293 155.863 542.02 180.781C525.48 230.599 494.899 294.768 454.185 361.46C413.472 428.152 370.371 484.678 333.619 522.157C315.236 540.903 298.485 554.838 284.452 562.908C277.434 566.943 271.148 569.482 265.713 570.446C260.288 571.41 255.782 570.795 252.218 568.619C248.654 566.443 246.048 562.717 244.426 557.451C242.8 552.176 242.185 545.424 242.567 537.339C243.331 521.168 248.071 499.901 256.344 474.983C272.884 425.165 303.465 360.995 344.179 294.304C384.893 227.612 427.993 171.085 464.746 133.606C483.129 114.86 499.879 100.925 513.913 92.8555C520.93 88.8203 527.217 86.2819 532.651 85.3171C538.077 84.354 542.582 84.9688 546.146 87.1446Z" stroke="white" stroke-opacity="0.4" stroke-width="2.24514" style="opacity: 0.8;"></path><path opacity="0" d="M568.452 99.6151C571.813 102.093 574.084 106.032 575.242 111.42C576.401 116.816 576.426 123.596 575.34 131.617C573.17 147.66 566.594 168.433 556.181 192.535C535.362 240.722 499.304 301.982 452.933 364.872C406.562 427.761 358.699 480.316 318.819 514.449C298.873 531.522 280.971 543.944 266.288 550.76C258.945 554.168 252.461 556.149 246.963 556.636C241.475 557.123 237.04 556.118 233.679 553.64C230.318 551.162 228.047 547.222 226.89 541.835C225.73 536.439 225.706 529.659 226.791 521.637C228.962 505.595 235.537 484.822 245.95 460.72C266.77 412.533 302.827 351.273 349.198 288.383C395.57 225.494 443.433 172.939 483.312 138.806C503.259 121.733 521.16 109.311 535.844 102.495C543.186 99.0867 549.67 97.1058 555.168 96.6184C560.657 96.1317 565.091 97.1369 568.452 99.6151Z" stroke="white" stroke-opacity="0.4" stroke-width="2.24514" style="opacity: 0.8;"></path><path opacity="0" d="M589.483 113.818C592.615 116.58 594.534 120.702 595.218 126.169C595.903 131.646 595.336 138.402 593.556 146.299C589.995 162.091 581.635 182.212 569.16 205.315C544.221 251.504 502.961 309.388 451.285 367.997C399.609 426.606 347.348 474.789 304.645 505.317C283.286 520.586 264.371 531.401 249.149 536.911C241.537 539.666 234.905 541.074 229.386 541.081C223.876 541.087 219.546 539.699 216.413 536.938C213.281 534.176 211.362 530.054 210.679 524.586C209.994 519.109 210.56 512.353 212.341 504.457C215.901 488.665 224.262 468.543 236.736 445.441C261.676 399.251 302.935 341.367 354.611 282.759C406.288 224.15 458.549 175.967 501.252 145.439C522.61 130.17 541.526 119.355 556.748 113.845C564.359 111.09 570.991 109.681 576.511 109.675C582.021 109.669 586.351 111.056 589.483 113.818Z" stroke="white" stroke-opacity="0.4" stroke-width="2.24514" style="opacity: 0.8;"></path><path opacity="0" d="M609.092 129.632C611.971 132.657 613.524 136.93 613.729 142.437C613.933 147.952 612.78 154.633 610.318 162.345C605.395 177.766 595.312 197.082 580.872 219.01C552.001 262.85 505.854 316.918 449.267 370.799C392.679 424.681 336.417 468.126 291.216 494.816C268.608 508.165 248.822 517.29 233.178 521.453C225.355 523.534 218.626 524.359 213.126 523.885C207.637 523.411 203.444 521.651 200.565 518.627C197.685 515.603 196.132 511.329 195.928 505.822C195.723 500.307 196.876 493.626 199.338 485.914C204.262 470.493 214.344 451.177 228.785 429.249C257.655 385.409 303.802 331.342 360.39 277.46C416.977 223.578 473.239 180.133 518.44 153.443C541.048 140.094 560.835 130.969 576.479 126.806C584.301 124.725 591.031 123.9 596.53 124.374C602.02 124.848 606.212 126.608 609.092 129.632Z" stroke="white" stroke-opacity="0.4" stroke-width="2.24514" style="opacity: 0.8;"></path><path opacity="0" d="M627.151 146.923C629.756 150.186 630.931 154.579 630.654 160.082C630.378 165.595 628.647 172.15 625.522 179.618C619.273 194.551 607.545 212.915 591.249 233.501C558.668 274.658 507.983 324.498 446.915 373.242C385.847 421.987 326.012 460.364 278.658 483.012C254.972 494.34 234.465 501.706 218.518 504.489C210.544 505.881 203.768 506.116 198.331 505.164C192.904 504.214 188.881 502.095 186.276 498.831C183.67 495.568 182.496 491.175 182.772 485.672C183.049 480.159 184.78 473.604 187.905 466.137C194.154 451.203 205.881 432.839 222.178 412.254C254.759 371.097 305.443 321.257 366.512 272.512C427.58 223.767 487.414 185.391 534.769 162.742C558.455 151.414 578.961 144.048 594.909 141.265C602.883 139.873 609.659 139.638 615.096 140.59C620.523 141.541 624.546 143.659 627.151 146.923Z" stroke="white" stroke-opacity="0.4" stroke-width="2.24514" style="opacity: 0.8;"></path><path opacity="0" d="M643.53 165.554C645.84 169.032 646.627 173.51 645.873 178.969C645.116 184.436 642.821 190.815 639.057 197.982C631.53 212.314 618.247 229.586 600.218 248.673C564.174 286.834 509.339 332.067 444.254 375.304C379.17 418.541 316.219 451.556 267.07 469.991C242.487 479.212 221.417 484.762 205.287 486.145C197.222 486.836 190.452 486.48 185.119 485.058C179.795 483.638 175.971 481.177 173.661 477.698C171.35 474.22 170.563 469.742 171.318 464.284C172.074 458.816 174.37 452.437 178.133 445.27C185.66 430.938 198.944 413.666 216.972 394.579C253.017 356.419 307.852 311.186 372.936 267.949C438.02 224.712 500.972 191.696 550.12 173.261C574.703 164.04 595.774 158.49 611.903 157.107C619.968 156.416 626.739 156.772 632.072 158.194C637.396 159.614 641.219 162.076 643.53 165.554Z" stroke="white" stroke-opacity="0.4" stroke-width="2.24514" style="opacity: 0.8;"></path><path opacity="0" d="M658.127 185.372C660.126 189.038 660.519 193.568 659.292 198.94C658.062 204.321 655.219 210.476 650.845 217.287C642.098 230.909 627.359 246.957 607.736 264.4C568.503 299.274 509.934 339.556 441.329 376.956C372.724 414.356 307.135 441.759 256.566 455.84C231.273 462.883 209.799 466.576 193.611 466.548C185.516 466.534 178.803 465.589 173.614 463.707C168.434 461.829 164.839 459.043 162.841 455.377C160.842 451.711 160.448 447.181 161.676 441.809C162.906 436.428 165.749 430.273 170.123 423.462C178.87 409.84 193.608 393.792 213.232 376.349C252.465 341.475 311.034 301.193 379.639 263.793C448.244 226.394 513.833 198.991 564.401 184.909C589.694 177.866 611.168 174.173 627.357 174.201C635.452 174.215 642.165 175.16 647.354 177.042C652.534 178.921 656.128 181.706 658.127 185.372Z" stroke="white" stroke-opacity="0.4" stroke-width="2.24514" style="opacity: 0.8;"></path><path opacity="0" d="M670.834 206.218C672.505 210.044 672.502 214.591 670.811 219.835C669.117 225.089 665.749 230.972 660.798 237.377C650.897 250.184 634.816 264.887 613.746 280.553C571.623 311.875 509.766 346.899 438.163 378.177C366.559 409.455 298.831 431.037 247.228 440.658C221.418 445.47 199.703 447.277 183.579 445.838C175.516 445.119 168.911 443.592 163.905 441.265C158.909 438.942 155.571 435.855 153.899 432.028C152.228 428.201 152.231 423.654 153.922 418.41C155.616 413.157 158.984 407.273 163.935 400.869C173.836 388.061 189.917 373.359 210.987 357.692C253.11 326.371 314.967 291.347 386.57 260.069C458.174 228.79 525.902 207.208 577.505 197.588C603.315 192.776 625.03 190.968 641.154 192.407C649.217 193.127 655.822 194.653 660.828 196.98C665.824 199.303 669.162 202.391 670.834 206.218Z" stroke="white" stroke-opacity="0.4" stroke-width="2.24514" style="opacity: 0.8;"></path><path opacity="0" d="M681.57 227.921C682.902 231.879 682.503 236.409 680.361 241.486C678.216 246.571 674.347 252.139 668.857 258.087C657.877 269.983 640.576 283.228 618.222 296.999C573.529 324.53 508.855 354.029 434.798 378.948C360.741 403.866 291.389 419.464 239.144 424.55C213.012 427.094 191.223 427.002 175.286 424.163C167.316 422.744 160.869 420.647 156.085 417.893C151.31 415.143 148.254 411.777 146.923 407.819C145.591 403.861 145.99 399.332 148.132 394.255C150.277 389.169 154.146 383.602 159.636 377.653C170.615 365.757 187.917 352.512 210.271 338.742C254.964 311.21 319.638 281.711 393.695 256.792C467.752 231.874 537.104 216.277 589.349 211.19C615.481 208.646 637.27 208.738 653.207 211.577C661.176 212.997 667.624 215.093 672.407 217.847C677.182 220.597 680.238 223.964 681.57 227.921Z" stroke="white" stroke-opacity="0.4" stroke-width="2.24514" style="opacity: 0.8;"></path><path opacity="0" d="M690.281 250.313C691.263 254.372 690.471 258.849 687.895 263.72C685.314 268.6 680.975 273.809 674.987 279.256C663.013 290.15 644.623 301.837 621.153 313.606C574.231 337.138 507.232 360.888 431.285 379.257C355.338 397.627 284.891 407.12 232.401 407.634C206.147 407.891 184.449 405.9 168.82 401.683C161.005 399.574 154.764 396.924 150.239 393.763C145.722 390.608 142.971 386.987 141.989 382.929C141.008 378.87 141.8 374.392 144.376 369.521C146.956 364.642 151.296 359.433 157.283 353.986C169.258 343.092 187.648 331.405 211.117 319.635C258.04 296.104 325.038 272.354 400.986 253.984C476.933 235.615 547.38 226.122 599.869 225.608C626.123 225.351 647.821 227.342 663.451 231.559C671.266 233.668 677.506 236.318 682.032 239.479C686.549 242.634 689.3 246.255 690.281 250.313Z" stroke="white" stroke-opacity="0.4" stroke-width="2.24514" style="opacity: 0.8;"></path><path opacity="0" d="M696.894 273.208C697.518 277.337 696.338 281.728 693.348 286.356C690.352 290.992 685.575 295.803 679.135 300.708C666.257 310.516 646.918 320.556 622.512 330.235C573.717 349.587 504.904 367.408 427.645 379.088C350.386 390.769 279.379 394.086 227.045 390.023C200.868 387.991 179.426 384.116 164.224 378.553C156.622 375.771 150.636 372.587 146.404 369.044C142.179 365.507 139.754 361.661 139.13 357.532C138.505 353.403 139.685 349.012 142.676 344.384C145.672 339.748 150.448 334.937 156.888 330.032C169.767 320.223 189.105 310.184 213.511 300.504C262.306 281.152 331.119 263.332 408.379 251.651C485.638 239.971 556.644 236.654 608.979 240.717C635.155 242.749 656.597 246.623 671.8 252.187C679.401 254.969 685.387 258.153 689.619 261.696C693.844 265.233 696.269 269.079 696.894 273.208Z" stroke="white" stroke-opacity="0.4" stroke-width="2.24514" style="opacity: 0.8;"></path><path opacity="0" d="M701.389 296.424C701.651 300.592 700.093 304.864 696.71 309.213C693.322 313.57 688.144 317.947 681.301 322.272C667.617 330.92 647.477 339.236 622.32 346.752C572.024 361.778 501.919 373.533 423.936 378.435C345.953 383.337 274.928 380.454 223.146 371.845C197.247 367.539 176.224 361.81 161.564 354.943C154.234 351.509 148.549 347.816 144.641 343.917C140.74 340.025 138.66 335.982 138.398 331.815C138.136 327.647 139.694 323.375 143.076 319.026C146.465 314.669 151.643 310.292 158.485 305.967C172.17 297.319 192.31 289.003 217.466 281.487C267.762 266.461 337.867 254.706 415.85 249.804C493.833 244.902 564.859 247.785 616.64 256.394C642.54 260.7 663.563 266.429 678.222 273.296C685.553 276.73 691.238 280.423 695.145 284.322C699.046 288.214 701.127 292.257 701.389 296.424Z" stroke="white" stroke-opacity="0.4" stroke-width="2.24514" style="opacity: 0.8;"></path><path opacity="0" d="M703.747 319.776C703.645 323.95 701.72 328.07 697.971 332.108C694.216 336.153 688.676 340.062 681.483 343.774C667.097 351.197 646.309 357.726 620.593 363.02C569.179 373.605 498.316 379.206 420.202 377.293C342.089 375.38 271.585 366.317 220.751 353.227C195.325 346.681 174.882 339.142 160.876 331.023C153.873 326.963 148.531 322.788 144.978 318.564C141.432 314.347 139.712 310.138 139.814 305.964C139.916 301.789 141.84 297.669 145.589 293.631C149.345 289.586 154.884 285.677 162.078 281.965C176.464 274.542 197.252 268.013 222.968 262.719C274.382 252.134 345.245 246.533 423.358 248.446C501.472 250.36 571.975 259.423 622.809 272.512C648.235 279.059 668.679 286.597 682.684 294.716C689.688 298.776 695.029 302.951 698.582 307.175C702.129 311.392 703.849 315.601 703.747 319.776Z" stroke="white" stroke-opacity="0.4" stroke-width="2.24514" style="opacity: 0.8;"></path><path opacity="0" d="M703.953 343.074C703.488 347.223 701.212 351.16 697.125 354.856C693.031 358.558 687.172 361.969 679.683 365.04C664.704 371.181 643.426 375.874 617.347 378.907C565.206 384.97 494.125 384.373 416.475 375.659C338.825 366.946 269.38 351.772 219.88 334.302C195.121 325.564 175.413 316.272 162.168 306.964C155.545 302.309 150.588 297.685 147.417 293.167C144.251 288.657 142.904 284.314 143.37 280.164C143.836 276.014 146.112 272.078 150.198 268.382C154.292 264.679 160.151 261.268 167.641 258.198C182.619 252.056 203.897 247.364 229.977 244.331C282.118 238.268 353.199 238.864 430.848 247.578C508.498 256.292 577.944 271.466 627.443 288.935C652.202 297.673 671.911 306.965 685.155 316.274C691.778 320.928 696.735 325.553 699.907 330.071C703.072 334.581 704.419 338.924 703.953 343.074Z" stroke="white" stroke-opacity="0.4" stroke-width="2.24514" style="opacity: 0.8;"></path><path opacity="0" d="M702.027 366.13C701.201 370.224 698.591 373.947 694.198 377.273C689.797 380.604 683.663 383.492 675.934 385.898C660.477 390.71 638.871 393.53 612.627 394.279C560.156 395.775 489.397 388.985 412.802 373.537C336.208 358.088 268.349 336.92 220.56 315.203C196.657 304.34 177.833 293.366 165.45 282.938C159.258 277.724 154.723 272.685 151.958 267.908C149.197 263.139 148.234 258.696 149.059 254.602C149.885 250.509 152.495 246.786 156.889 243.46C161.289 240.128 167.424 237.241 175.152 234.835C190.609 230.022 212.215 227.202 238.46 226.454C290.93 224.958 361.689 231.747 438.284 247.196C514.879 262.644 582.737 283.812 630.526 305.53C654.429 316.393 673.253 327.367 685.636 337.794C691.828 343.008 696.363 348.048 699.129 352.824C701.889 357.593 702.852 362.037 702.027 366.13Z" stroke="white" stroke-opacity="0.4" stroke-width="2.24514" style="opacity: 0.8;"></path><path opacity="0" d="M698.001 388.765C696.822 392.771 693.897 396.253 689.231 399.183C684.556 402.118 678.194 404.46 670.285 406.184C654.468 409.631 632.698 410.557 606.488 409.015C554.086 405.932 484.189 393.001 409.232 370.936C334.275 348.871 268.519 321.869 222.805 296.069C199.94 283.164 182.144 270.591 170.718 259.124C165.004 253.391 160.925 247.975 158.586 242.975C156.252 237.984 155.679 233.473 156.859 229.467C158.038 225.462 160.963 221.98 165.629 219.05C170.304 216.115 176.666 213.773 184.575 212.049C200.392 208.602 222.162 207.676 248.372 209.218C300.773 212.301 370.671 225.231 445.628 247.297C520.585 269.362 586.34 296.364 632.055 322.164C654.92 335.068 672.716 347.642 684.142 359.108C689.856 364.842 693.935 370.258 696.274 375.258C698.608 380.249 699.181 384.76 698.001 388.765Z" stroke="white" stroke-opacity="0.4" stroke-width="2.24514" style="opacity: 0.8;"></path><path opacity="0" d="M691.912 410.793C690.388 414.681 687.171 417.894 682.267 420.407C677.355 422.923 670.812 424.702 662.783 425.729C646.726 427.785 624.958 426.81 598.982 422.99C547.049 415.352 478.544 396.378 405.796 367.864C333.047 339.349 269.895 306.719 226.603 277.033C204.95 262.185 188.318 248.109 177.934 235.69C172.741 229.479 169.15 223.729 167.256 218.545C165.365 213.369 165.189 208.825 166.712 204.938C168.236 201.05 171.453 197.837 176.358 195.324C181.27 192.807 187.812 191.029 195.842 190.001C211.899 187.946 233.666 188.921 259.642 192.741C311.576 200.379 380.081 219.353 452.829 247.867C525.578 276.381 588.73 309.011 632.021 338.697C653.675 353.546 670.307 367.622 680.691 380.041C685.883 386.251 689.475 392.001 691.369 397.186C693.259 402.362 693.436 406.905 691.912 410.793Z" stroke="white" stroke-opacity="0.4" stroke-width="2.24514" style="opacity: 0.8;"></path><path opacity="0" d="M683.832 432.036C681.975 435.776 678.49 438.697 673.386 440.773C668.273 442.852 661.6 444.053 653.512 444.377C637.337 445.025 615.737 442.157 590.193 436.087C539.123 423.952 472.532 399.08 402.546 364.334C332.559 329.587 272.492 291.577 231.952 258.231C211.675 241.552 196.333 226.08 187.071 212.803C182.439 206.164 179.363 200.122 177.928 194.793C176.496 189.472 176.716 184.93 178.572 181.19C180.429 177.45 183.914 174.529 189.019 172.454C194.132 170.375 200.804 169.173 208.893 168.849C225.068 168.201 246.668 171.069 272.212 177.139C323.282 189.274 389.872 214.146 459.859 248.893C529.845 283.639 589.913 321.649 630.453 354.995C650.729 371.674 666.072 387.146 675.334 400.423C679.965 407.062 683.042 413.104 684.477 418.434C685.909 423.754 685.689 428.296 683.832 432.036Z" stroke="white" stroke-opacity="0.4" stroke-width="2.24514" style="opacity: 0.8;"></path><path opacity="0" d="M673.82 452.326C671.644 455.89 667.918 458.496 662.652 460.119C657.377 461.744 650.626 462.359 642.54 461.977C626.37 461.213 605.102 456.473 580.184 448.2C530.366 431.66 466.197 401.079 399.505 360.365C332.813 319.651 276.287 276.551 238.808 239.798C220.062 221.415 206.126 204.665 198.057 190.631C194.022 183.614 191.483 177.327 190.518 171.893C189.555 166.467 190.17 161.962 192.346 158.398C194.522 154.834 198.248 152.228 203.514 150.605C208.789 148.98 215.54 148.365 223.626 148.747C239.797 149.511 261.064 154.251 285.982 162.524C335.8 179.064 399.969 209.645 466.661 250.359C533.353 291.072 589.879 334.173 627.358 370.926C646.104 389.308 660.04 406.059 668.109 420.093C672.145 427.11 674.683 433.397 675.648 438.831C676.611 444.257 675.996 448.762 673.82 452.326Z" stroke="white" stroke-opacity="0.4" stroke-width="2.24514" style="opacity: 0.8;"></path><path opacity="0" d="M661.979 471.499C659.501 474.86 655.561 477.131 650.174 478.289C644.778 479.448 637.998 479.473 629.976 478.387C613.934 476.216 593.161 469.641 569.059 459.228C520.872 438.409 459.612 402.351 396.722 355.98C333.833 309.609 281.278 261.745 247.145 221.866C230.072 201.92 217.65 184.018 210.834 169.335C207.426 161.992 205.445 155.508 204.957 150.01C204.471 144.522 205.476 140.087 207.954 136.726C210.432 133.365 214.371 131.094 219.759 129.937C225.155 128.777 231.935 128.753 239.956 129.838C255.999 132.009 276.772 138.584 300.874 148.997C349.061 169.816 410.321 205.874 473.211 252.245C536.1 298.616 588.655 346.48 622.788 386.359C639.861 406.306 652.283 424.207 659.099 438.891C662.507 446.233 664.488 452.717 664.975 458.215C665.462 463.704 664.457 468.138 661.979 471.499Z" stroke="white" stroke-opacity="0.4" stroke-width="2.24514" style="opacity: 0.8;"></path><path opacity="0" d="M648.405 489.393C645.643 492.526 641.521 494.445 636.053 495.128C630.576 495.813 623.82 495.247 615.924 493.466C600.132 489.905 580.01 481.545 556.908 469.07C510.718 444.131 452.834 402.871 394.226 351.195C335.617 299.519 287.434 247.258 256.906 204.555C241.637 183.197 230.822 164.281 225.312 149.059C222.557 141.447 221.148 134.816 221.142 129.296C221.136 123.786 222.523 119.456 225.285 116.324C228.047 113.191 232.169 111.272 237.636 110.589C243.113 109.904 249.869 110.47 257.766 112.251C273.558 115.811 293.679 124.172 316.782 136.647C362.971 161.586 420.855 202.846 479.464 254.522C538.073 306.198 586.256 358.459 616.784 401.162C632.053 422.52 642.868 441.436 648.378 456.658C651.133 464.269 652.541 470.901 652.548 476.421C652.554 481.931 651.166 486.261 648.405 489.393Z" stroke="white" stroke-opacity="0.4" stroke-width="2.24514" style="opacity: 0.8;"></path><path opacity="0" d="M633.227 505.873C630.203 508.753 625.929 510.305 620.423 510.51C614.907 510.715 608.226 509.561 600.515 507.1C585.093 502.176 565.777 492.093 543.849 477.653C500.01 448.783 445.942 402.635 392.06 346.048C338.178 289.46 294.733 233.198 268.043 187.998C254.694 165.389 245.569 145.603 241.406 129.959C239.325 122.136 238.5 115.407 238.975 109.908C239.449 104.418 241.209 100.225 244.233 97.3458C247.257 94.4663 251.531 92.9137 257.037 92.7092C262.553 92.5043 269.234 93.6575 276.945 96.1194C292.367 101.043 311.683 111.126 333.61 125.566C377.45 154.436 431.518 200.584 485.4 257.171C539.282 313.759 582.727 370.021 609.416 415.221C622.766 437.83 631.891 457.616 636.053 473.26C638.135 481.083 638.96 487.812 638.485 493.311C638.011 498.801 636.251 502.994 633.227 505.873Z" stroke="white" stroke-opacity="0.4" stroke-width="2.24514" style="opacity: 0.8;"></path><path opacity="0" d="M616.565 520.796C613.302 523.401 608.909 524.575 603.406 524.299C597.893 524.022 591.338 522.291 583.871 519.167C568.937 512.918 550.573 501.19 529.988 484.894C488.831 452.312 438.991 401.628 390.246 340.56C341.501 279.491 303.125 219.657 280.476 172.302C269.148 148.617 261.782 128.11 258.999 112.163C257.607 104.188 257.372 97.4127 258.324 91.9759C259.275 86.5483 261.393 82.5251 264.657 79.92C267.92 77.315 272.313 76.1408 277.816 76.417C283.329 76.6936 289.884 78.4248 297.352 81.5494C312.285 87.7982 330.649 99.526 351.235 115.822C392.391 148.404 442.232 199.088 490.976 260.156C539.721 321.224 578.098 381.059 600.746 428.414C612.074 452.099 619.44 472.606 622.223 488.553C623.615 496.528 623.85 503.303 622.898 508.74C621.948 514.168 619.829 518.191 616.565 520.796Z" stroke="white" stroke-opacity="0.4" stroke-width="2.24514" style="opacity: 0.8;"></path><path opacity="0" d="M598.575 534.041C595.097 536.352 590.618 537.139 585.16 536.384C579.693 535.628 573.313 533.332 566.147 529.569C551.814 522.042 534.543 508.758 515.456 490.73C477.295 454.685 432.062 399.85 388.825 334.766C345.588 269.682 312.573 206.73 294.138 157.582C284.917 132.999 279.367 111.928 277.984 95.7992C277.292 87.734 277.649 80.9636 279.071 75.6304C280.491 70.3063 282.952 66.4831 286.431 64.1724C289.909 61.8617 294.387 61.0749 299.845 61.8296C305.313 62.5857 311.692 64.8815 318.859 68.6451C333.191 76.1716 350.463 89.4554 369.55 107.484C407.71 143.528 452.943 198.364 496.18 263.448C539.417 328.532 572.432 391.484 590.868 440.632C600.088 465.215 605.639 486.285 607.022 502.415C607.713 510.48 607.357 517.25 605.934 522.583C604.515 527.908 602.053 531.731 598.575 534.041Z" stroke="white" stroke-opacity="0.4" stroke-width="2.24514" style="opacity: 0.8;"></path></svg>